/vscmnt/brussel_pixiu_data/_data_brussel/112/vsc11236/PredSimResults/SUBJ09mtu3D/worker6.mot
version=1
nRows=7
nColumns=50
inDegrees=yes
endheader
                time	         pelvis_tilt	         pelvis_list	     pelvis_rotation	           pelvis_tx	           pelvis_ty	           pelvis_tz	       hip_flexion_r	     hip_adduction_r	      hip_rotation_r	        knee_angle_r	       ankle_angle_r	         mtp_angle_r	       hip_flexion_l	     hip_adduction_l	      hip_rotation_l	        knee_angle_l	       ankle_angle_l	         mtp_angle_l	    lumbar_extension	      lumbar_bending	     lumbar_rotation	 ercspn_r/activation	 intobl_r/activation	 extobl_r/activation	    abd_r/activation	    add_r/activation	hamstrings_r/activation	bifemsh_r/activation	glut_max_r/activation	iliopsoas_r/activation	rect_fem_r/activation	  vasti_r/activation	gastroc_r/activation	 soleus_r/activation	tib_ant_r/activation	 ercspn_l/activation	 intobl_l/activation	 extobl_l/activation	    abd_l/activation	    add_l/activation	hamstrings_l/activation	bifemsh_l/activation	glut_max_l/activation	iliopsoas_l/activation	rect_fem_l/activation	  vasti_l/activation	gastroc_l/activation	 soleus_l/activation	tib_ant_l/activation	
          0.00000000	         -4.24632545	         -0.85615056	          8.29731735	          0.00000000	          0.98860953	         -0.00330698	         29.03359256	         -1.83272594	         -8.87119886	         -6.34948112	          4.28313797	          0.24613861	        -14.35117496	         -2.45132988	         -4.62330642	         -9.71166309	          3.64522944	         36.85646395	        -13.55394721	         -1.19828837	         -6.79145786	          0.02941228	          0.15643866	          0.03009251	          0.01000809	          0.21901314	          0.06799365	          0.13545024	          0.08939892	          0.13479616	          0.01116144	          0.01000046	          0.01462811	          0.01000038	          0.32533183	          0.03276105	          0.01000037	          0.01000048	          0.02667605	          0.01209465	          0.01480493	          0.17680118	          0.01152324	          0.01210590	          0.01000156	          0.01000063	          0.31005477	          0.21395029	          0.01252238	
          0.01256588	         -4.27353705	         -0.98205828	          8.30453863	          0.02013629	          0.98637986	         -0.00259965	         28.98388180	         -1.66930569	         -9.01676527	         -8.23593846	          3.87595068	          0.20891088	        -15.02059670	         -2.80583954	         -5.04809061	        -10.42269252	          2.46829105	         38.44703972	        -13.04066947	         -0.74741889	         -7.00333459	          0.02431940	          0.12934898	          0.02488156	          0.07384395	          0.18539282	          0.06742702	          0.11199519	          0.12864973	          0.11145418	          0.01000039	          0.01000049	          0.01209685	          0.01209447	          0.36464496	          0.02708875	          0.01000026	          0.01000122	          0.02205670	          0.01000185	          0.01226740	          0.14618619	          0.01000081	          0.01001162	          0.01000093	          0.01000116	          0.28160343	          0.19153679	          0.01035396	
          0.02513176	         -4.28298768	         -1.11712709	          8.27796235	          0.04051432	          0.98448292	         -0.00180940	         28.84129580	         -1.49046508	         -9.15096059	        -10.00045648	          3.32840860	          0.20153044	        -15.48733717	         -3.19020882	         -5.49386007	        -11.53114777	          1.17324755	         39.96320239	        -12.51640926	         -0.28633067	         -7.18384048	          0.02349983	          0.10695027	          0.02057297	          0.12853958	          0.20667641	          0.05575137	          0.09260169	          0.16870637	          0.09215423	          0.01000037	          0.01000040	          0.01000222	          0.01000021	          0.40879214	          0.03585985	          0.01000010	          0.01000027	          0.01823726	          0.01000049	          0.01014350	          0.12087233	          0.01000017	          0.03200874	          0.01000140	          0.01000069	          0.23330047	          0.15987193	          0.01000005	
          0.03769764	         -4.27581046	         -1.25112610	          8.21827892	          0.06079184	          0.98311576	         -0.00092283	         28.75461651	         -1.31041338	         -9.28092774	        -11.87631853	          2.78810242	          0.16741354	        -15.64074003	         -3.60305159	         -5.95216189	        -13.20112564	         -0.19055469	         41.23964430	        -12.02245817	          0.17360503	         -7.33094134	          0.03483808	          0.08843023	          0.01701048	          0.17674087	          0.25530960	          0.05207069	          0.07656645	          0.17273171	          0.07619634	          0.01000053	          0.07309615	          0.01000094	          0.01000083	          0.42957899	          0.08863711	          0.01000032	          0.01000022	          0.01507921	          0.04064702	          0.01771810	          0.09994189	          0.01000024	          0.02647027	          0.01000090	          0.01000172	          0.19290101	          0.13218774	          0.01000006	
          0.05026352	         -4.25392929	         -1.38258621	          8.13289987	          0.08077645	          0.98240754	          0.00004413	         28.72350525	         -1.12792980	         -9.37384275	        -13.90143301	          2.57378000	          0.12794534	        -15.40396206	         -4.05149833	         -6.43402823	        -15.53830374	         -1.59158632	         42.07347457	        -11.57575320	          0.63073017	         -7.44756590	          0.02880926	          0.07311722	          0.01406490	          0.20202620	          0.27543636	          0.04799033	          0.06330797	          0.18686941	          0.06300181	          0.01000048	          0.17117212	          0.01000111	          0.01000066	          0.43054012	          0.10074231	          0.01000040	          0.01000025	          0.01246802	          0.12353979	          0.02312374	          0.08263612	          0.01000009	          0.03700453	          0.01000038	          0.01000020	          0.15949729	          0.10929745	          0.01000014	
          0.06282941	         -4.22108793	         -1.49805089	          8.02026682	          0.10031801	          0.98248788	          0.00105854	         28.64414644	         -0.93999345	         -9.42706113	        -15.87274012	          2.70290887	          0.09373171	        -14.71595945	         -4.53077909	         -6.98846034	        -18.63365898	         -2.93439248	         42.06440823	        -11.19039518	          1.07195346	         -7.52997429	          0.02382168	          0.06045589	          0.01162943	          0.20916408	          0.30221030	          0.04934927	          0.05234540	          0.18883396	          0.05209211	          0.01000039	          0.20546514	          0.01000076	          0.01000039	          0.40313430	          0.09904620	          0.01000049	          0.01000029	          0.01030901	          0.17543180	          0.02168945	          0.06832742	          0.01000007	          0.03059859	          0.01000034	          0.01000014	          0.13187793	          0.09037096	          0.01000007	
          0.07539529	         -4.17987915	         -1.58207260	          7.87712954	          0.11936380	          0.98336385	          0.00208735	         28.43981654	         -0.75316263	         -9.44974529	        -17.64217676	          3.14379291	          0.08053259	        -13.56880012	         -5.04235416	         -7.62378872	        -22.46282553	         -4.33585000	         41.15421128	        -10.87019303	          1.48217789	         -7.57277976	          0.01969700	          0.04998706	          0.01000022	          0.20868007	          0.28910069	          0.05530289	          0.04328118	          0.18028386	          0.04307159	          0.01000039	          0.24426602	          0.01000106	          0.01000064	          0.35238915	          0.09025832	          0.01000020	          0.01000029	          0.01000003	          0.21957712	          0.03324955	          0.05926786	          0.01000005	          0.02530075	          0.01000024	          0.01000005	          0.10904128	          0.07472187	          0.01000074	
